<?xml version="1.0" encoding="utf-8"?>
<svg width="345px" height="50px" viewBox="0 0 345 50" version="1.1" xmlns:xlink="http://www.w3.org/1999/xlink" xmlns="http://www.w3.org/2000/svg">
  <desc>Created with Lunacy</desc>
  <path d="M8 0L337 0Q337.205 0 337.408 0.009326Q337.612 0.018652 337.814 0.037285Q338.016 0.055918 338.215 0.0838199Q338.415 0.111722 338.612 0.148836Q338.808 0.18595 339.002 0.2322Q339.196 0.27845 339.387 0.333743Q339.577 0.389035 339.764 0.453256Q339.951 0.517478 340.133 0.590497Q340.316 0.663517 340.494 0.745186Q340.672 0.826855 340.845 0.917006Q341.018 1.00716 341.186 1.10561Q341.354 1.20406 341.516 1.31061Q341.678 1.41715 341.834 1.53158Q341.991 1.64601 342.141 1.76809Q342.291 1.89016 342.434 2.01963Q342.578 2.14911 342.714 2.28571Q342.851 2.42232 342.98 2.56578Q343.11 2.70925 343.232 2.85927Q343.354 3.0093 343.468 3.16558Q343.583 3.32186 343.689 3.48408Q343.796 3.6463 343.894 3.81412Q343.993 3.98195 344.083 4.15504Q344.173 4.32813 344.255 4.50613Q344.337 4.68413 344.41 4.86668Q344.483 5.04923 344.547 5.23595Q344.611 5.42268 344.666 5.61319Q344.722 5.80371 344.768 5.99764Q344.814 6.19157 344.851 6.3885Q344.888 6.58544 344.916 6.78498Q344.944 6.98453 344.963 7.18627Q344.981 7.38802 344.991 7.59155Q345 7.79509 345 8L345 42Q345 42.2049 344.991 42.4085Q344.981 42.612 344.963 42.8137Q344.944 43.0155 344.916 43.215Q344.888 43.4146 344.851 43.6115Q344.814 43.8084 344.768 44.0024Q344.722 44.1963 344.666 44.3868Q344.611 44.5773 344.547 44.7641Q344.483 44.9508 344.41 45.1333Q344.337 45.3159 344.255 45.4939Q344.173 45.6719 344.083 45.845Q343.993 46.0181 343.894 46.1859Q343.796 46.3537 343.689 46.5159Q343.583 46.6782 343.468 46.8344Q343.354 46.9907 343.232 47.1407Q343.11 47.2908 342.98 47.4342Q342.851 47.5777 342.714 47.7143Q342.578 47.8509 342.434 47.9804Q342.291 48.1098 342.141 48.2319Q341.991 48.354 341.834 48.4684Q341.678 48.5828 341.516 48.6894Q341.354 48.7959 341.186 48.8944Q341.018 48.9928 340.845 49.083Q340.672 49.1732 340.494 49.2548Q340.316 49.3365 340.133 49.4095Q339.951 49.4825 339.764 49.5467Q339.577 49.611 339.387 49.6663Q339.196 49.7215 339.002 49.7678Q338.808 49.8141 338.612 49.8512Q338.415 49.8883 338.215 49.9162Q338.016 49.9441 337.814 49.9627Q337.612 49.9813 337.408 49.9907Q337.205 50 337 50L8 50Q7.79509 50 7.59155 49.9907Q7.38802 49.9813 7.18627 49.9627Q6.98453 49.9441 6.78498 49.9162Q6.58544 49.8883 6.3885 49.8512Q6.19157 49.8141 5.99764 49.7678Q5.80371 49.7215 5.6132 49.6663Q5.42268 49.611 5.23595 49.5467Q5.04923 49.4825 4.86668 49.4095Q4.68413 49.3365 4.50613 49.2548Q4.32813 49.1732 4.15504 49.083Q3.98195 48.9928 3.81412 48.8944Q3.6463 48.7959 3.48408 48.6894Q3.32186 48.5828 3.16558 48.4684Q3.0093 48.354 2.85927 48.2319Q2.70925 48.1098 2.56578 47.9804Q2.42232 47.8509 2.28571 47.7143Q2.14911 47.5777 2.01963 47.4342Q1.89016 47.2908 1.76809 47.1407Q1.64601 46.9907 1.53158 46.8344Q1.41715 46.6782 1.31061 46.5159Q1.20406 46.3537 1.10561 46.1859Q1.00716 46.0181 0.917006 45.845Q0.826855 45.6719 0.745186 45.4939Q0.663517 45.3159 0.590497 45.1333Q0.517478 44.9508 0.453256 44.7641Q0.389035 44.5773 0.333743 44.3868Q0.27845 44.1963 0.2322 44.0024Q0.18595 43.8084 0.148836 43.6115Q0.111722 43.4146 0.0838199 43.215Q0.055918 43.0155 0.037285 42.8137Q0.018652 42.612 0.009326 42.4085Q0 42.2049 0 42L0 8Q0 7.79509 0.009326 7.59155Q0.018652 7.38802 0.037285 7.18627Q0.055918 6.98453 0.0838199 6.78498Q0.111722 6.58544 0.148836 6.3885Q0.18595 6.19157 0.2322 5.99764Q0.27845 5.80371 0.333743 5.6132Q0.389035 5.42268 0.453256 5.23595Q0.517478 5.04923 0.590497 4.86668Q0.663517 4.68413 0.745186 4.50613Q0.826855 4.32813 0.917006 4.15504Q1.00716 3.98195 1.10561 3.81412Q1.20406 3.6463 1.31061 3.48408Q1.41715 3.32186 1.53158 3.16558Q1.64601 3.0093 1.76809 2.85927Q1.89016 2.70925 2.01963 2.56578Q2.14911 2.42232 2.28571 2.28571Q2.42232 2.14911 2.56578 2.01963Q2.70925 1.89016 2.85927 1.76809Q3.0093 1.64601 3.16558 1.53158Q3.32186 1.41715 3.48408 1.31061Q3.6463 1.20406 3.81412 1.10561Q3.98195 1.00716 4.15504 0.917006Q4.32813 0.826855 4.50613 0.745186Q4.68413 0.663517 4.86668 0.590497Q5.04923 0.517478 5.23595 0.453256Q5.42268 0.389035 5.61319 0.333743Q5.80371 0.27845 5.99764 0.2322Q6.19157 0.18595 6.3885 0.148836Q6.58544 0.111722 6.78498 0.0838199Q6.98453 0.055918 7.18627 0.037285Q7.38802 0.018652 7.59155 0.009326Q7.79509 0 8 0Z" id="Button" fill="#007AFF" stroke="none" />
</svg>