<?xml version="1.0" encoding="utf-8"?>
<svg width="343px" height="148px" viewBox="0 0 343 148" version="1.1" xmlns:xlink="http://www.w3.org/1999/xlink" xmlns="http://www.w3.org/2000/svg">
  <desc>Created with Lunacy</desc>
  <path d="M10 0L333 0Q333.256 0 333.511 0.0116575Q333.765 0.023315 334.017 0.0466062Q334.269 0.0698974 334.519 0.104775Q334.768 0.139652 335.014 0.186045Q335.261 0.232437 335.503 0.29025Q335.745 0.348063 335.984 0.417178Q336.222 0.486294 336.455 0.566571Q336.689 0.646847 336.917 0.738122Q337.145 0.829396 337.367 0.931482Q337.59 1.03357 337.806 1.14626Q338.023 1.25895 338.232 1.38201Q338.442 1.50507 338.645 1.63826Q338.848 1.77144 339.043 1.91448Q339.238 2.05751 339.426 2.21011Q339.613 2.3627 339.793 2.52454Q339.972 2.68638 340.143 2.85714Q340.314 3.0279 340.475 3.20723Q340.637 3.38656 340.79 3.57409Q340.943 3.76162 341.086 3.95697Q341.229 4.15232 341.362 4.3551Q341.495 4.55787 341.618 4.76765Q341.741 4.97743 341.854 5.1938Q341.967 5.41016 342.069 5.63266Q342.171 5.85516 342.262 6.08335Q342.353 6.31153 342.433 6.54494Q342.514 6.77835 342.583 7.01649Q342.652 7.25464 342.71 7.49705Q342.768 7.73946 342.814 7.98563Q342.86 8.2318 342.895 8.48123Q342.93 8.73066 342.953 8.98284Q342.977 9.23502 342.988 9.48944Q343 9.74386 343 10L343 138Q343 138.256 342.988 138.511Q342.977 138.765 342.953 139.017Q342.93 139.269 342.895 139.519Q342.86 139.768 342.814 140.014Q342.768 140.261 342.71 140.503Q342.652 140.745 342.583 140.984Q342.514 141.222 342.433 141.455Q342.353 141.688 342.262 141.917Q342.171 142.145 342.069 142.367Q341.966 142.59 341.854 142.806Q341.741 143.023 341.618 143.232Q341.495 143.442 341.362 143.645Q341.229 143.848 341.086 144.043Q340.943 144.238 340.79 144.426Q340.637 144.613 340.475 144.793Q340.314 144.972 340.143 145.143Q339.972 145.314 339.793 145.475Q339.613 145.637 339.426 145.79Q339.238 145.943 339.043 146.086Q338.848 146.229 338.645 146.362Q338.442 146.495 338.232 146.618Q338.023 146.741 337.806 146.854Q337.59 146.966 337.367 147.069Q337.145 147.171 336.917 147.262Q336.689 147.353 336.455 147.433Q336.222 147.514 335.984 147.583Q335.745 147.652 335.503 147.71Q335.261 147.768 335.014 147.814Q334.768 147.86 334.519 147.895Q334.269 147.93 334.017 147.953Q333.765 147.977 333.511 147.988Q333.256 148 333 148L10 148Q9.74386 148 9.48944 147.988Q9.23502 147.977 8.98284 147.953Q8.73066 147.93 8.48123 147.895Q8.2318 147.86 7.98563 147.814Q7.73946 147.768 7.49705 147.71Q7.25464 147.652 7.01649 147.583Q6.77835 147.514 6.54494 147.433Q6.31153 147.353 6.08335 147.262Q5.85516 147.171 5.63266 147.069Q5.41016 146.966 5.1938 146.854Q4.97743 146.741 4.76765 146.618Q4.55787 146.495 4.3551 146.362Q4.15232 146.229 3.95697 146.086Q3.76162 145.943 3.57409 145.79Q3.38656 145.637 3.20723 145.475Q3.0279 145.314 2.85714 145.143Q2.68638 144.972 2.52454 144.793Q2.3627 144.613 2.21011 144.426Q2.05751 144.238 1.91448 144.043Q1.77144 143.848 1.63826 143.645Q1.50507 143.442 1.38201 143.232Q1.25895 143.023 1.14626 142.806Q1.03357 142.59 0.931482 142.367Q0.829396 142.145 0.738122 141.917Q0.646847 141.688 0.566571 141.455Q0.486294 141.222 0.417178 140.984Q0.348063 140.745 0.29025 140.503Q0.232437 140.261 0.186045 140.014Q0.139652 139.768 0.104775 139.519Q0.0698974 139.269 0.0466062 139.017Q0.023315 138.765 0.0116575 138.511Q0 138.256 0 138L0 10Q0 9.74386 0.0116575 9.48944Q0.023315 9.23502 0.0466062 8.98284Q0.0698974 8.73066 0.104775 8.48123Q0.139652 8.2318 0.186045 7.98563Q0.232437 7.73946 0.29025 7.49705Q0.348063 7.25464 0.417178 7.01649Q0.486294 6.77835 0.566571 6.54494Q0.646847 6.31153 0.738122 6.08335Q0.829396 5.85516 0.931482 5.63266Q1.03357 5.41016 1.14626 5.1938Q1.25895 4.97743 1.38201 4.76765Q1.50507 4.55787 1.63826 4.3551Q1.77144 4.15232 1.91448 3.95697Q2.05751 3.76162 2.21011 3.57409Q2.3627 3.38656 2.52454 3.20723Q2.68638 3.0279 2.85714 2.85714Q3.0279 2.68638 3.20723 2.52454Q3.38656 2.3627 3.57409 2.21011Q3.76162 2.05751 3.95697 1.91448Q4.15232 1.77144 4.3551 1.63826Q4.55787 1.50507 4.76765 1.38201Q4.97743 1.25895 5.1938 1.14626Q5.41016 1.03357 5.63266 0.931482Q5.85516 0.829396 6.08335 0.738122Q6.31153 0.646847 6.54494 0.566571Q6.77835 0.486294 7.01649 0.417178Q7.25464 0.348063 7.49705 0.29025Q7.73946 0.232437 7.98563 0.186045Q8.2318 0.139652 8.48123 0.104775Q8.73066 0.0698974 8.98284 0.0466062Q9.23502 0.023315 9.48944 0.0116575Q9.74386 0 10 0Z" id="Rectangle" fill="#D3D3D3" stroke="none" />
</svg>