<?xml version="1.0" encoding="utf-8"?>
<svg width="343px" height="700px" viewBox="0 0 343 700" version="1.1" xmlns:xlink="http://www.w3.org/1999/xlink" xmlns="http://www.w3.org/2000/svg">
  <desc>Created with Lunacy</desc>
  <path d="M20 0L323 0Q323.512 0 324.021 0.023315Q324.53 0.04663 325.034 0.0932124Q325.539 0.139795 326.038 0.20955Q326.536 0.279305 327.029 0.37209Q327.521 0.464874 328.006 0.5805Q328.491 0.696126 328.967 0.834357Q329.443 0.972587 329.91 1.13314Q330.377 1.29369 330.833 1.47624Q331.29 1.65879 331.735 1.86296Q332.18 2.06714 332.612 2.29252Q333.045 2.51789 333.465 2.76402Q333.884 3.01014 334.29 3.27651Q334.695 3.54288 335.086 3.82895Q335.477 4.11502 335.852 4.42021Q336.227 4.7254 336.586 5.04909Q336.944 5.37277 337.286 5.71429Q337.627 6.0558 337.951 6.41446Q338.275 6.77312 338.58 7.14818Q338.885 7.52324 339.171 7.91394Q339.457 8.30465 339.724 8.71019Q339.99 9.11574 340.236 9.53531Q340.482 9.95487 340.708 10.3876Q340.933 10.8203 341.137 11.2653Q341.341 11.7103 341.524 12.1667Q341.706 12.6231 341.867 13.0899Q342.027 13.5567 342.166 14.033Q342.304 14.5093 342.42 14.9941Q342.535 15.4789 342.628 15.9713Q342.721 16.4636 342.79 16.9625Q342.86 17.4613 342.907 17.9657Q342.953 18.47 342.977 18.9789Q343 19.4877 343 20L343 680Q343 680.512 342.977 681.021Q342.953 681.53 342.907 682.034Q342.86 682.539 342.79 683.038Q342.721 683.536 342.628 684.029Q342.535 684.521 342.42 685.006Q342.304 685.491 342.166 685.967Q342.027 686.443 341.867 686.91Q341.706 687.377 341.524 687.833Q341.341 688.29 341.137 688.735Q340.933 689.18 340.708 689.612Q340.482 690.045 340.236 690.465Q339.99 690.884 339.724 691.29Q339.457 691.695 339.171 692.086Q338.885 692.477 338.58 692.852Q338.275 693.227 337.951 693.586Q337.627 693.944 337.286 694.286Q336.944 694.627 336.586 694.951Q336.227 695.275 335.852 695.58Q335.477 695.885 335.086 696.171Q334.695 696.457 334.29 696.724Q333.884 696.99 333.465 697.236Q333.045 697.482 332.612 697.708Q332.18 697.933 331.735 698.137Q331.29 698.341 330.833 698.524Q330.377 698.706 329.91 698.867Q329.443 699.027 328.967 699.166Q328.491 699.304 328.006 699.419Q327.521 699.535 327.029 699.628Q326.536 699.721 326.038 699.79Q325.539 699.86 325.034 699.907Q324.53 699.953 324.021 699.977Q323.512 700 323 700L20 700Q19.4877 700 18.9789 699.977Q18.47 699.953 17.9657 699.907Q17.4613 699.86 16.9625 699.79Q16.4636 699.721 15.9713 699.628Q15.4789 699.535 14.9941 699.419Q14.5093 699.304 14.033 699.166Q13.5567 699.027 13.0899 698.867Q12.6231 698.706 12.1667 698.524Q11.7103 698.341 11.2653 698.137Q10.8203 697.933 10.3876 697.708Q9.95487 697.482 9.53531 697.236Q9.11574 696.99 8.71019 696.724Q8.30465 696.457 7.91394 696.171Q7.52324 695.885 7.14818 695.58Q6.77312 695.275 6.41446 694.951Q6.0558 694.627 5.71429 694.286Q5.37277 693.944 5.04909 693.586Q4.7254 693.227 4.42021 692.852Q4.11503 692.477 3.82895 692.086Q3.54288 691.695 3.27651 691.29Q3.01014 690.884 2.76402 690.465Q2.51789 690.045 2.29252 689.612Q2.06714 689.18 1.86296 688.735Q1.65879 688.29 1.47624 687.833Q1.29369 687.377 1.13314 686.91Q0.972587 686.443 0.834357 685.967Q0.696126 685.491 0.5805 685.006Q0.464874 684.521 0.37209 684.029Q0.279305 683.536 0.20955 683.038Q0.139795 682.539 0.0932124 682.034Q0.04663 681.53 0.023315 681.021Q0 680.512 0 680L0 20Q0 19.4877 0.023315 18.9789Q0.04663 18.47 0.0932124 17.9657Q0.139795 17.4613 0.20955 16.9625Q0.279305 16.4636 0.37209 15.9713Q0.464874 15.4789 0.5805 14.9941Q0.696126 14.5093 0.834357 14.033Q0.972587 13.5567 1.13314 13.0899Q1.29369 12.6231 1.47624 12.1667Q1.65879 11.7103 1.86296 11.2653Q2.06714 10.8203 2.29252 10.3876Q2.51789 9.95487 2.76402 9.53531Q3.01014 9.11574 3.27651 8.71019Q3.54288 8.30465 3.82895 7.91394Q4.11502 7.52324 4.42021 7.14818Q4.7254 6.77312 5.04909 6.41446Q5.37277 6.0558 5.71429 5.71429Q6.0558 5.37277 6.41446 5.04909Q6.77312 4.7254 7.14818 4.42021Q7.52324 4.11503 7.91394 3.82895Q8.30465 3.54288 8.71019 3.27651Q9.11574 3.01014 9.53531 2.76402Q9.95487 2.51789 10.3876 2.29252Q10.8203 2.06714 11.2653 1.86296Q11.7103 1.65879 12.1667 1.47624Q12.6231 1.29369 13.0899 1.13314Q13.5567 0.972587 14.033 0.834357Q14.5093 0.696126 14.9941 0.5805Q15.4789 0.464874 15.9713 0.37209Q16.4636 0.279305 16.9625 0.20955Q17.4613 0.139795 17.9657 0.0932124Q18.47 0.04663 18.9789 0.023315Q19.4877 0 20 0Z" id="Rectangle" fill="#FEA085" stroke="none" />
</svg>