<?xml version="1.0" encoding="utf-8"?>
<svg width="343px" height="67px" viewBox="0 0 343 67" version="1.1" xmlns:xlink="http://www.w3.org/1999/xlink" xmlns="http://www.w3.org/2000/svg">
  <desc>Created with Lunacy</desc>
  <path d="M268.283 0L10 0Q9.74386 0 9.48944 0.0116575Q9.23502 0.023315 8.98284 0.0466062Q8.73066 0.0698974 8.48123 0.104775Q8.2318 0.139652 7.98563 0.186045Q7.73946 0.232437 7.49705 0.29025Q7.25464 0.348063 7.01649 0.417178Q6.77835 0.486294 6.54494 0.566571Q6.31153 0.646847 6.08335 0.738122Q5.85516 0.829396 5.63266 0.931482Q5.41016 1.03357 5.1938 1.14626Q4.97743 1.25895 4.76765 1.38201Q4.55787 1.50507 4.3551 1.63826Q4.15232 1.77144 3.95697 1.91448Q3.76162 2.05751 3.57409 2.21011Q3.38656 2.3627 3.20723 2.52454Q3.0279 2.68638 2.85714 2.85714Q2.68638 3.0279 2.52454 3.20723Q2.3627 3.38656 2.21011 3.57409Q2.05751 3.76162 1.91448 3.95697Q1.77144 4.15232 1.63826 4.3551Q1.50507 4.55787 1.38201 4.76765Q1.25895 4.97743 1.14626 5.1938Q1.03357 5.41016 0.931482 5.63266Q0.829396 5.85516 0.738122 6.08335Q0.646847 6.31153 0.566571 6.54494Q0.486294 6.77835 0.417178 7.01649Q0.348063 7.25464 0.29025 7.49705Q0.232437 7.73946 0.186045 7.98563Q0.139652 8.2318 0.104775 8.48123Q0.0698974 8.73066 0.0466062 8.98284Q0.023315 9.23502 0.0116575 9.48944Q0 9.74386 0 10L0 56.6666Q0 56.9228 0.0116575 57.1772Q0.023315 57.4316 0.0466062 57.6838Q0.0698974 57.936 0.104775 58.1854Q0.139652 58.4348 0.186045 58.681Q0.232437 58.9272 0.29025 59.1696Q0.348063 59.412 0.417178 59.6502Q0.486294 59.8883 0.566571 60.1217Q0.646847 60.3551 0.738122 60.5833Q0.829396 60.8115 0.931482 61.034Q1.03357 61.2565 1.14626 61.4729Q1.25895 61.6892 1.38201 61.899Q1.50507 62.1088 1.63826 62.3116Q1.77144 62.5143 1.91448 62.7097Q2.05751 62.905 2.21011 63.0926Q2.3627 63.2801 2.52454 63.4594Q2.68638 63.6387 2.85714 63.8095Q3.0279 63.9803 3.20723 64.1421Q3.38656 64.3039 3.57409 64.4565Q3.76162 64.6091 3.95697 64.7522Q4.15232 64.8952 4.3551 65.0284Q4.55787 65.1616 4.76765 65.2846Q4.97743 65.4077 5.1938 65.5204Q5.41016 65.6331 5.63266 65.7352Q5.85516 65.8373 6.08335 65.9285Q6.31153 66.0198 6.54494 66.1001Q6.77835 66.1804 7.01649 66.2495Q7.25464 66.3186 7.49705 66.3764Q7.73946 66.4342 7.98563 66.4806Q8.2318 66.527 8.48123 66.5619Q8.73066 66.5967 8.98284 66.62Q9.23502 66.6433 9.48944 66.655Q9.74386 66.6666 10 66.6666L268.283 66.6666Q268.539 66.6666 268.794 66.655Q269.048 66.6433 269.3 66.62Q269.552 66.5967 269.802 66.5619Q270.051 66.527 270.297 66.4806Q270.544 66.4342 270.786 66.3764Q271.028 66.3186 271.267 66.2495Q271.505 66.1804 271.738 66.1001Q271.972 66.0198 272.2 65.9285Q272.428 65.8373 272.65 65.7352Q272.873 65.6331 273.089 65.5204Q273.306 65.4077 273.515 65.2846Q273.725 65.1616 273.928 65.0284Q274.131 64.8952 274.326 64.7522Q274.521 64.6091 274.709 64.4565Q274.897 64.3039 275.076 64.1421Q275.255 63.9803 275.426 63.8095Q275.597 63.6387 275.758 63.4594Q275.92 63.2801 276.073 63.0926Q276.226 62.905 276.369 62.7097Q276.512 62.5143 276.645 62.3116Q276.778 62.1088 276.901 61.899Q277.024 61.6892 277.137 61.4729Q277.249 61.2565 277.352 61.034Q277.454 60.8115 277.545 60.5833Q277.636 60.3551 277.717 60.1217Q277.797 59.8883 277.866 59.6502Q277.935 59.412 277.993 59.1696Q278.051 58.9272 278.097 58.681Q278.143 58.4348 278.178 58.1854Q278.213 57.936 278.236 57.6838Q278.26 57.4316 278.271 57.1772Q278.283 56.9228 278.283 56.6666Q278.283 56.9228 278.295 57.1772Q278.306 57.4316 278.33 57.6838Q278.353 57.936 278.388 58.1854Q278.423 58.4348 278.469 58.681Q278.516 58.9272 278.573 59.1696Q278.631 59.412 278.7 59.6502Q278.769 59.8883 278.85 60.1217Q278.93 60.3551 279.021 60.5833Q279.112 60.8115 279.215 61.034Q279.317 61.2565 279.429 61.4729Q279.542 61.6892 279.665 61.899Q279.788 62.1088 279.921 62.3116Q280.055 62.5143 280.198 62.7097Q280.341 62.905 280.493 63.0926Q280.646 63.2801 280.808 63.4594Q280.969 63.6387 281.14 63.8095Q281.311 63.9803 281.49 64.1421Q281.67 64.3039 281.857 64.4565Q282.045 64.6091 282.24 64.7522Q282.435 64.8952 282.638 65.0284Q282.841 65.1616 283.051 65.2846Q283.26 65.4077 283.477 65.5204Q283.693 65.6331 283.916 65.7352Q284.138 65.8373 284.366 65.9285Q284.595 66.0198 284.828 66.1001Q285.061 66.1804 285.3 66.2495Q285.538 66.3186 285.78 66.3764Q286.023 66.4342 286.269 66.4806Q286.515 66.527 286.764 66.5619Q287.014 66.5967 287.266 66.62Q287.518 66.6433 287.772 66.655Q288.027 66.6666 288.283 66.6666L333 66.6666Q333.256 66.6666 333.511 66.655Q333.765 66.6433 334.017 66.62Q334.269 66.5967 334.519 66.5619Q334.768 66.527 335.014 66.4806Q335.261 66.4342 335.503 66.3764Q335.745 66.3186 335.984 66.2495Q336.222 66.1804 336.455 66.1001Q336.689 66.0198 336.917 65.9285Q337.145 65.8373 337.367 65.7352Q337.59 65.6331 337.806 65.5204Q338.023 65.4077 338.232 65.2846Q338.442 65.1616 338.645 65.0284Q338.848 64.8952 339.043 64.7522Q339.238 64.6091 339.426 64.4565Q339.613 64.3039 339.793 64.1421Q339.972 63.9803 340.143 63.8095Q340.314 63.6387 340.475 63.4594Q340.637 63.2801 340.79 63.0926Q340.943 62.905 341.086 62.7097Q341.229 62.5143 341.362 62.3116Q341.495 62.1088 341.618 61.899Q341.741 61.6892 341.854 61.4729Q341.967 61.2565 342.069 61.034Q342.171 60.8115 342.262 60.5833Q342.353 60.3551 342.433 60.1217Q342.514 59.8883 342.583 59.6502Q342.652 59.412 342.71 59.1696Q342.768 58.9272 342.814 58.681Q342.86 58.4348 342.895 58.1854Q342.93 57.936 342.953 57.6838Q342.977 57.4316 342.988 57.1772Q343 56.9228 343 56.6666L343 10Q343 9.74386 342.988 9.48944Q342.977 9.23502 342.953 8.98284Q342.93 8.73066 342.895 8.48123Q342.86 8.2318 342.814 7.98563Q342.768 7.73946 342.71 7.49705Q342.652 7.25464 342.583 7.01649Q342.514 6.77835 342.433 6.54494Q342.353 6.31153 342.262 6.08335Q342.171 5.85516 342.069 5.63266Q341.966 5.41016 341.854 5.1938Q341.741 4.97743 341.618 4.76765Q341.495 4.55787 341.362 4.3551Q341.229 4.15232 341.086 3.95697Q340.943 3.76162 340.79 3.57409Q340.637 3.38656 340.475 3.20723Q340.314 3.0279 340.143 2.85714Q339.972 2.68638 339.793 2.52454Q339.613 2.3627 339.426 2.21011Q339.238 2.05751 339.043 1.91448Q338.848 1.77144 338.645 1.63826Q338.442 1.50507 338.232 1.38201Q338.023 1.25895 337.806 1.14626Q337.59 1.03357 337.367 0.931482Q337.145 0.829396 336.917 0.738122Q336.689 0.646847 336.455 0.566571Q336.222 0.486294 335.984 0.417178Q335.745 0.348063 335.503 0.29025Q335.261 0.232437 335.014 0.186045Q334.768 0.139652 334.519 0.104775Q334.269 0.0698974 334.017 0.0466062Q333.765 0.023315 333.511 0.0116575Q333.256 0 333 0L288.283 0Q288.027 0 287.772 0.0116575Q287.518 0.023315 287.266 0.0466062Q287.014 0.0698974 286.764 0.104775Q286.515 0.139652 286.269 0.186045Q286.023 0.232437 285.78 0.29025Q285.538 0.348063 285.3 0.417178Q285.061 0.486294 284.828 0.566571Q284.595 0.646847 284.366 0.738122Q284.138 0.829396 283.916 0.931482Q283.693 1.03357 283.477 1.14626Q283.26 1.25895 283.051 1.38201Q282.841 1.50507 282.638 1.63826Q282.435 1.77144 282.24 1.91448Q282.045 2.05751 281.857 2.21011Q281.67 2.3627 281.49 2.52454Q281.311 2.68638 281.14 2.85714Q280.969 3.0279 280.808 3.20723Q280.646 3.38656 280.493 3.57409Q280.341 3.76162 280.198 3.95697Q280.055 4.15232 279.921 4.3551Q279.788 4.55787 279.665 4.76765Q279.542 4.97743 279.429 5.1938Q279.317 5.41016 279.215 5.63266Q279.112 5.85516 279.021 6.08335Q278.93 6.31153 278.85 6.54494Q278.769 6.77835 278.7 7.01649Q278.631 7.25464 278.573 7.49705Q278.516 7.73946 278.469 7.98563Q278.423 8.2318 278.388 8.48123Q278.353 8.73066 278.33 8.98284Q278.306 9.23502 278.295 9.48944Q278.283 9.74386 278.283 10Q278.283 9.74386 278.271 9.48944Q278.26 9.23502 278.236 8.98284Q278.213 8.73066 278.178 8.48123Q278.143 8.2318 278.097 7.98563Q278.051 7.73946 277.993 7.49705Q277.935 7.25464 277.866 7.01649Q277.797 6.77835 277.717 6.54494Q277.636 6.31153 277.545 6.08335Q277.454 5.85516 277.352 5.63266Q277.249 5.41016 277.137 5.1938Q277.024 4.97743 276.901 4.76765Q276.778 4.55787 276.645 4.3551Q276.512 4.15232 276.369 3.95697Q276.226 3.76162 276.073 3.57409Q275.92 3.38656 275.758 3.20723Q275.597 3.0279 275.426 2.85714Q275.255 2.68638 275.076 2.52454Q274.897 2.3627 274.709 2.21011Q274.521 2.05751 274.326 1.91448Q274.131 1.77144 273.928 1.63826Q273.725 1.50507 273.515 1.38201Q273.306 1.25895 273.089 1.14626Q272.873 1.03357 272.65 0.931482Q272.428 0.829396 272.2 0.738122Q271.972 0.646847 271.738 0.566571Q271.505 0.486294 271.267 0.417178Q271.028 0.348063 270.786 0.29025Q270.544 0.232437 270.297 0.186045Q270.051 0.139652 269.802 0.104775Q269.552 0.0698974 269.3 0.0466062Q269.048 0.023315 268.794 0.0116575Q268.539 0 268.283 0Z" id="Rectangle-Union" fill="#007AFF" fill-rule="evenodd" stroke="none" />
</svg>